<svg xmlns="http://www.w3.org/2000/svg">
    <symbol id="icon-create" viewBox="0 0 512 512">
        <path d="M448 256c0-106-86-192-192-192S64 150 64 256s86 192 192 192 192-86 192-192z" fill="none"
              stroke="currentColor" stroke-miterlimit="10" stroke-width="32"/>
        <path fill="none" stroke="currentColor" stroke-linecap="round" stroke-linejoin="round" stroke-width="32"
              d="M256 176v160M336 256H176"/>
    </symbol>
    <symbol id="icon-trash" viewBox="0 0 512 512">
        <path d="M112 112l20 320c.95 18.49 14.4 32 32 32h184c17.67 0 30.87-13.51 32-32l20-320" fill="none"
              stroke="currentColor" stroke-linecap="round" stroke-linejoin="round" stroke-width="32"/>
        <path stroke="currentColor" stroke-linecap="round" stroke-miterlimit="10" stroke-width="32" d="M80 112h352"/>
        <path d="M192 112V72h0a23.93 23.93 0 0124-24h80a23.93 23.93 0 0124 24h0v40M256 176v224M184 176l8 224M328 176l-8 224"
              fill="none" stroke="currentColor" stroke-linecap="round" stroke-linejoin="round" stroke-width="32"/>
    </symbol>
</svg>